<svg xmlns="http://www.w3.org/2000/svg" width="1200" height="24" viewBox="0 0 1200 24">
<style>@keyframes run{from{transform:translateX(0)}to{transform:translateX(-24px)}}.c{animation:run .6s linear infinite}
@media (prefers-reduced-motion: reduce){*{animation:none!important}}</style>
<g class="c"><rect x="0" y="0" width="12" height="12" fill="#F5F5F5"/><rect x="0" y="12" width="12" height="12" fill="#0A0A0A"/><rect x="12" y="0" width="12" height="12" fill="#0A0A0A"/><rect x="12" y="12" width="12" height="12" fill="#F5F5F5"/><rect x="24" y="0" width="12" height="12" fill="#F5F5F5"/><rect x="24" y="12" width="12" height="12" fill="#0A0A0A"/><rect x="36" y="0" width="12" height="12" fill="#0A0A0A"/><rect x="36" y="12" width="12" height="12" fill="#F5F5F5"/><rect x="48" y="0" width="12" height="12" fill="#F5F5F5"/><rect x="48" y="12" width="12" height="12" fill="#0A0A0A"/><rect x="60" y="0" width="12" height="12" fill="#0A0A0A"/><rect x="60" y="12" width="12" height="12" fill="#F5F5F5"/><rect x="72" y="0" width="12" height="12" fill="#F5F5F5"/><rect x="72" y="12" width="12" height="12" fill="#0A0A0A"/><rect x="84" y="0" width="12" height="12" fill="#0A0A0A"/><rect x="84" y="12" width="12" height="12" fill="#F5F5F5"/><rect x="96" y="0" width="12" height="12" fill="#F5F5F5"/><rect x="96" y="12" width="12" height="12" fill="#0A0A0A"/><rect x="108" y="0" width="12" height="12" fill="#0A0A0A"/><rect x="108" y="12" width="12" height="12" fill="#F5F5F5"/><rect x="120" y="0" width="12" height="12" fill="#F5F5F5"/><rect x="120" y="12" width="12" height="12" fill="#0A0A0A"/><rect x="132" y="0" width="12" height="12" fill="#0A0A0A"/><rect x="132" y="12" width="12" height="12" fill="#F5F5F5"/><rect x="144" y="0" width="12" height="12" fill="#F5F5F5"/><rect x="144" y="12" width="12" height="12" fill="#0A0A0A"/><rect x="156" y="0" width="12" height="12" fill="#0A0A0A"/><rect x="156" y="12" width="12" height="12" fill="#F5F5F5"/><rect x="168" y="0" width="12" height="12" fill="#F5F5F5"/><rect x="168" y="12" width="12" height="12" fill="#0A0A0A"/><rect x="180" y="0" width="12" height="12" fill="#0A0A0A"/><rect x="180" y="12" width="12" height="12" fill="#F5F5F5"/><rect x="192" y="0" width="12" height="12" fill="#F5F5F5"/><rect x="192" y="12" width="12" height="12" fill="#0A0A0A"/><rect x="204" y="0" width="12" height="12" fill="#0A0A0A"/><rect x="204" y="12" width="12" height="12" fill="#F5F5F5"/><rect x="216" y="0" width="12" height="12" fill="#F5F5F5"/><rect x="216" y="12" width="12" height="12" fill="#0A0A0A"/><rect x="228" y="0" width="12" height="12" fill="#0A0A0A"/><rect x="228" y="12" width="12" height="12" fill="#F5F5F5"/><rect x="240" y="0" width="12" height="12" fill="#F5F5F5"/><rect x="240" y="12" width="12" height="12" fill="#0A0A0A"/><rect x="252" y="0" width="12" height="12" fill="#0A0A0A"/><rect x="252" y="12" width="12" height="12" fill="#F5F5F5"/><rect x="264" y="0" width="12" height="12" fill="#F5F5F5"/><rect x="264" y="12" width="12" height="12" fill="#0A0A0A"/><rect x="276" y="0" width="12" height="12" fill="#0A0A0A"/><rect x="276" y="12" width="12" height="12" fill="#F5F5F5"/><rect x="288" y="0" width="12" height="12" fill="#F5F5F5"/><rect x="288" y="12" width="12" height="12" fill="#0A0A0A"/><rect x="300" y="0" width="12" height="12" fill="#0A0A0A"/><rect x="300" y="12" width="12" height="12" fill="#F5F5F5"/><rect x="312" y="0" width="12" height="12" fill="#F5F5F5"/><rect x="312" y="12" width="12" height="12" fill="#0A0A0A"/><rect x="324" y="0" width="12" height="12" fill="#0A0A0A"/><rect x="324" y="12" width="12" height="12" fill="#F5F5F5"/><rect x="336" y="0" width="12" height="12" fill="#F5F5F5"/><rect x="336" y="12" width="12" height="12" fill="#0A0A0A"/><rect x="348" y="0" width="12" height="12" fill="#0A0A0A"/><rect x="348" y="12" width="12" height="12" fill="#F5F5F5"/><rect x="360" y="0" width="12" height="12" fill="#F5F5F5"/><rect x="360" y="12" width="12" height="12" fill="#0A0A0A"/><rect x="372" y="0" width="12" height="12" fill="#0A0A0A"/><rect x="372" y="12" width="12" height="12" fill="#F5F5F5"/><rect x="384" y="0" width="12" height="12" fill="#F5F5F5"/><rect x="384" y="12" width="12" height="12" fill="#0A0A0A"/><rect x="396" y="0" width="12" height="12" fill="#0A0A0A"/><rect x="396" y="12" width="12" height="12" fill="#F5F5F5"/><rect x="408" y="0" width="12" height="12" fill="#F5F5F5"/><rect x="408" y="12" width="12" height="12" fill="#0A0A0A"/><rect x="420" y="0" width="12" height="12" fill="#0A0A0A"/><rect x="420" y="12" width="12" height="12" fill="#F5F5F5"/><rect x="432" y="0" width="12" height="12" fill="#F5F5F5"/><rect x="432" y="12" width="12" height="12" fill="#0A0A0A"/><rect x="444" y="0" width="12" height="12" fill="#0A0A0A"/><rect x="444" y="12" width="12" height="12" fill="#F5F5F5"/><rect x="456" y="0" width="12" height="12" fill="#F5F5F5"/><rect x="456" y="12" width="12" height="12" fill="#0A0A0A"/><rect x="468" y="0" width="12" height="12" fill="#0A0A0A"/><rect x="468" y="12" width="12" height="12" fill="#F5F5F5"/><rect x="480" y="0" width="12" height="12" fill="#F5F5F5"/><rect x="480" y="12" width="12" height="12" fill="#0A0A0A"/><rect x="492" y="0" width="12" height="12" fill="#0A0A0A"/><rect x="492" y="12" width="12" height="12" fill="#F5F5F5"/><rect x="504" y="0" width="12" height="12" fill="#F5F5F5"/><rect x="504" y="12" width="12" height="12" fill="#0A0A0A"/><rect x="516" y="0" width="12" height="12" fill="#0A0A0A"/><rect x="516" y="12" width="12" height="12" fill="#F5F5F5"/><rect x="528" y="0" width="12" height="12" fill="#F5F5F5"/><rect x="528" y="12" width="12" height="12" fill="#0A0A0A"/><rect x="540" y="0" width="12" height="12" fill="#0A0A0A"/><rect x="540" y="12" width="12" height="12" fill="#F5F5F5"/><rect x="552" y="0" width="12" height="12" fill="#F5F5F5"/><rect x="552" y="12" width="12" height="12" fill="#0A0A0A"/><rect x="564" y="0" width="12" height="12" fill="#0A0A0A"/><rect x="564" y="12" width="12" height="12" fill="#F5F5F5"/><rect x="576" y="0" width="12" height="12" fill="#F5F5F5"/><rect x="576" y="12" width="12" height="12" fill="#0A0A0A"/><rect x="588" y="0" width="12" height="12" fill="#0A0A0A"/><rect x="588" y="12" width="12" height="12" fill="#F5F5F5"/><rect x="600" y="0" width="12" height="12" fill="#F5F5F5"/><rect x="600" y="12" width="12" height="12" fill="#0A0A0A"/><rect x="612" y="0" width="12" height="12" fill="#0A0A0A"/><rect x="612" y="12" width="12" height="12" fill="#F5F5F5"/><rect x="624" y="0" width="12" height="12" fill="#F5F5F5"/><rect x="624" y="12" width="12" height="12" fill="#0A0A0A"/><rect x="636" y="0" width="12" height="12" fill="#0A0A0A"/><rect x="636" y="12" width="12" height="12" fill="#F5F5F5"/><rect x="648" y="0" width="12" height="12" fill="#F5F5F5"/><rect x="648" y="12" width="12" height="12" fill="#0A0A0A"/><rect x="660" y="0" width="12" height="12" fill="#0A0A0A"/><rect x="660" y="12" width="12" height="12" fill="#F5F5F5"/><rect x="672" y="0" width="12" height="12" fill="#F5F5F5"/><rect x="672" y="12" width="12" height="12" fill="#0A0A0A"/><rect x="684" y="0" width="12" height="12" fill="#0A0A0A"/><rect x="684" y="12" width="12" height="12" fill="#F5F5F5"/><rect x="696" y="0" width="12" height="12" fill="#F5F5F5"/><rect x="696" y="12" width="12" height="12" fill="#0A0A0A"/><rect x="708" y="0" width="12" height="12" fill="#0A0A0A"/><rect x="708" y="12" width="12" height="12" fill="#F5F5F5"/><rect x="720" y="0" width="12" height="12" fill="#F5F5F5"/><rect x="720" y="12" width="12" height="12" fill="#0A0A0A"/><rect x="732" y="0" width="12" height="12" fill="#0A0A0A"/><rect x="732" y="12" width="12" height="12" fill="#F5F5F5"/><rect x="744" y="0" width="12" height="12" fill="#F5F5F5"/><rect x="744" y="12" width="12" height="12" fill="#0A0A0A"/><rect x="756" y="0" width="12" height="12" fill="#0A0A0A"/><rect x="756" y="12" width="12" height="12" fill="#F5F5F5"/><rect x="768" y="0" width="12" height="12" fill="#F5F5F5"/><rect x="768" y="12" width="12" height="12" fill="#0A0A0A"/><rect x="780" y="0" width="12" height="12" fill="#0A0A0A"/><rect x="780" y="12" width="12" height="12" fill="#F5F5F5"/><rect x="792" y="0" width="12" height="12" fill="#F5F5F5"/><rect x="792" y="12" width="12" height="12" fill="#0A0A0A"/><rect x="804" y="0" width="12" height="12" fill="#0A0A0A"/><rect x="804" y="12" width="12" height="12" fill="#F5F5F5"/><rect x="816" y="0" width="12" height="12" fill="#F5F5F5"/><rect x="816" y="12" width="12" height="12" fill="#0A0A0A"/><rect x="828" y="0" width="12" height="12" fill="#0A0A0A"/><rect x="828" y="12" width="12" height="12" fill="#F5F5F5"/><rect x="840" y="0" width="12" height="12" fill="#F5F5F5"/><rect x="840" y="12" width="12" height="12" fill="#0A0A0A"/><rect x="852" y="0" width="12" height="12" fill="#0A0A0A"/><rect x="852" y="12" width="12" height="12" fill="#F5F5F5"/><rect x="864" y="0" width="12" height="12" fill="#F5F5F5"/><rect x="864" y="12" width="12" height="12" fill="#0A0A0A"/><rect x="876" y="0" width="12" height="12" fill="#0A0A0A"/><rect x="876" y="12" width="12" height="12" fill="#F5F5F5"/><rect x="888" y="0" width="12" height="12" fill="#F5F5F5"/><rect x="888" y="12" width="12" height="12" fill="#0A0A0A"/><rect x="900" y="0" width="12" height="12" fill="#0A0A0A"/><rect x="900" y="12" width="12" height="12" fill="#F5F5F5"/><rect x="912" y="0" width="12" height="12" fill="#F5F5F5"/><rect x="912" y="12" width="12" height="12" fill="#0A0A0A"/><rect x="924" y="0" width="12" height="12" fill="#0A0A0A"/><rect x="924" y="12" width="12" height="12" fill="#F5F5F5"/><rect x="936" y="0" width="12" height="12" fill="#F5F5F5"/><rect x="936" y="12" width="12" height="12" fill="#0A0A0A"/><rect x="948" y="0" width="12" height="12" fill="#0A0A0A"/><rect x="948" y="12" width="12" height="12" fill="#F5F5F5"/><rect x="960" y="0" width="12" height="12" fill="#F5F5F5"/><rect x="960" y="12" width="12" height="12" fill="#0A0A0A"/><rect x="972" y="0" width="12" height="12" fill="#0A0A0A"/><rect x="972" y="12" width="12" height="12" fill="#F5F5F5"/><rect x="984" y="0" width="12" height="12" fill="#F5F5F5"/><rect x="984" y="12" width="12" height="12" fill="#0A0A0A"/><rect x="996" y="0" width="12" height="12" fill="#0A0A0A"/><rect x="996" y="12" width="12" height="12" fill="#F5F5F5"/><rect x="1008" y="0" width="12" height="12" fill="#F5F5F5"/><rect x="1008" y="12" width="12" height="12" fill="#0A0A0A"/><rect x="1020" y="0" width="12" height="12" fill="#0A0A0A"/><rect x="1020" y="12" width="12" height="12" fill="#F5F5F5"/><rect x="1032" y="0" width="12" height="12" fill="#F5F5F5"/><rect x="1032" y="12" width="12" height="12" fill="#0A0A0A"/><rect x="1044" y="0" width="12" height="12" fill="#0A0A0A"/><rect x="1044" y="12" width="12" height="12" fill="#F5F5F5"/><rect x="1056" y="0" width="12" height="12" fill="#F5F5F5"/><rect x="1056" y="12" width="12" height="12" fill="#0A0A0A"/><rect x="1068" y="0" width="12" height="12" fill="#0A0A0A"/><rect x="1068" y="12" width="12" height="12" fill="#F5F5F5"/><rect x="1080" y="0" width="12" height="12" fill="#F5F5F5"/><rect x="1080" y="12" width="12" height="12" fill="#0A0A0A"/><rect x="1092" y="0" width="12" height="12" fill="#0A0A0A"/><rect x="1092" y="12" width="12" height="12" fill="#F5F5F5"/><rect x="1104" y="0" width="12" height="12" fill="#F5F5F5"/><rect x="1104" y="12" width="12" height="12" fill="#0A0A0A"/><rect x="1116" y="0" width="12" height="12" fill="#0A0A0A"/><rect x="1116" y="12" width="12" height="12" fill="#F5F5F5"/><rect x="1128" y="0" width="12" height="12" fill="#F5F5F5"/><rect x="1128" y="12" width="12" height="12" fill="#0A0A0A"/><rect x="1140" y="0" width="12" height="12" fill="#0A0A0A"/><rect x="1140" y="12" width="12" height="12" fill="#F5F5F5"/><rect x="1152" y="0" width="12" height="12" fill="#F5F5F5"/><rect x="1152" y="12" width="12" height="12" fill="#0A0A0A"/><rect x="1164" y="0" width="12" height="12" fill="#0A0A0A"/><rect x="1164" y="12" width="12" height="12" fill="#F5F5F5"/><rect x="1176" y="0" width="12" height="12" fill="#F5F5F5"/><rect x="1176" y="12" width="12" height="12" fill="#0A0A0A"/><rect x="1188" y="0" width="12" height="12" fill="#0A0A0A"/><rect x="1188" y="12" width="12" height="12" fill="#F5F5F5"/><rect x="1200" y="0" width="12" height="12" fill="#F5F5F5"/><rect x="1200" y="12" width="12" height="12" fill="#0A0A0A"/><rect x="1212" y="0" width="12" height="12" fill="#0A0A0A"/><rect x="1212" y="12" width="12" height="12" fill="#F5F5F5"/></g>
<rect x="0" width="190" height="24" fill="#0A0A0A"/>
<g><rect x="12" width="50" height="24" fill="#E60012" transform="skewX(-25)"/><rect x="70" width="50" height="24" fill="#F5F5F5" transform="skewX(-25)"/><rect x="128" width="50" height="24" fill="#E60012" transform="skewX(-25)"/></g>
</svg>