<svg xmlns="http://www.w3.org/2000/svg" width="1200" height="380" viewBox="0 0 1200 380" role="img" aria-label="Telemetry: 928 commits, 8 repositories, 7 languages">
<title>Telemetry: 928 commits, 8 repositories, 7 languages</title>
<defs><pattern id="carbon" width="8" height="8" patternUnits="userSpaceOnUse" patternTransform="rotate(45)">
<rect width="8" height="8" fill="#0A0A0A"/><rect width="4" height="4" fill="#151515"/><rect x="4" y="4" width="4" height="4" fill="#151515"/></pattern>
<linearGradient id="fade" x1="0" x2="1"><stop offset="0" stop-color="#0A0A0A" stop-opacity="0"/><stop offset="1" stop-color="#0A0A0A" stop-opacity=".95"/></linearGradient>
<clipPath id="card"><rect width="1200" height="380" rx="14"/></clipPath>
</defs>
<style>text{font-family:'Arial Black','Helvetica Neue',Helvetica,Arial,sans-serif} .mono{font-family:'SF Mono','Menlo','Consolas',monospace} 
@keyframes needle{0%{transform:rotate(-135deg)}35%{transform:rotate(95deg)}42%{transform:rotate(78deg)}50%{transform:rotate(100deg)}58%{transform:rotate(84deg)}100%{transform:rotate(92deg)}}
.needle{transform-origin:210px 200px;animation:needle 3.2s cubic-bezier(.3,.7,.2,1) both}
@keyframes shift{0%,30%{fill:#2E2E2E}32%,100%{fill:#E60012}}
.shift rect{animation:shift 3.2s both}
@keyframes rise{from{opacity:0;transform:translateY(10px)}to{opacity:1;transform:none}}
.t1{animation:rise .6s .3s both}.t2{animation:rise .6s .5s both}.t3{animation:rise .6s .7s both}.t4{animation:rise .6s .9s both}

@keyframes spin{to{transform:rotate(360deg)}}
.spin{transform-box:fill-box;transform-origin:center;animation:spin .28s linear infinite}
@keyframes boost{0%{transform:scaleX(.04)}60%{transform:scaleX(1)}62%{transform:scaleX(.12)}100%{transform:scaleX(.04)}}
.boost{transform-box:fill-box;transform-origin:left;animation:boost 3.2s cubic-bezier(.5,0,.9,.6) infinite}
@keyframes blur{0%{opacity:0}60%{opacity:.9}62%,100%{opacity:0}}
.blur{animation:blur 3.2s infinite}
@keyframes bov{0%,61%{opacity:0;transform:translateX(-10px)}63%{opacity:1;transform:none}80%{opacity:.8}90%,100%{opacity:0;transform:translateX(16px)}}
.bov{animation:bov 3.2s infinite}

@media (prefers-reduced-motion: reduce){*{animation:none!important}}</style>
<g clip-path="url(#card)">
<rect width="1200" height="380" fill="url(#carbon)"/>

<text class="mono" x="430" y="30" font-size="14" letter-spacing="5" fill="#FF1E2D">// LIVE TELEMETRY</text>
<g class="shift"><rect style="animation-delay:0.0s" x="144" y="16" width="20" height="10" rx="3"/><rect style="animation-delay:0.12s" x="172" y="16" width="20" height="10" rx="3"/><rect style="animation-delay:0.24s" x="200" y="16" width="20" height="10" rx="3"/><rect style="animation-delay:0.36s" x="228" y="16" width="20" height="10" rx="3"/><rect style="animation-delay:0.48s" x="256" y="16" width="20" height="10" rx="3"/></g>
<circle cx="210" cy="200" r="154" fill="#050505" stroke="#2E2E2E" stroke-width="2"/>
<path d="M108.2,301.8 A144,144 0 1 1 311.8,301.8" fill="none" stroke="#242424" stroke-width="6"/>
<path d="M349.1,162.7 A144,144 0 0 1 311.8,301.8" fill="none" stroke="#E60012" stroke-width="6"/>
<line x1="126.6" y1="283.4" x2="111.0" y2="299.0" stroke="#F5F5F5" stroke-width="3"/><text x="140.7" y="276.3" text-anchor="middle" font-size="18" font-style="italic" fill="#F5F5F5">0</text><line x1="113.4" y1="287.0" x2="106.0" y2="293.7" stroke="#8C8C8C" stroke-width="1.4"/><line x1="109.0" y1="281.8" x2="101.2" y2="288.1" stroke="#8C8C8C" stroke-width="1.4"/><line x1="104.8" y1="276.4" x2="96.7" y2="282.3" stroke="#8C8C8C" stroke-width="1.4"/><line x1="101.0" y1="270.8" x2="92.6" y2="276.2" stroke="#8C8C8C" stroke-width="1.4"/><line x1="97.4" y1="265.0" x2="88.8" y2="270.0" stroke="#8C8C8C" stroke-width="1.4"/><line x1="94.2" y1="259.0" x2="85.3" y2="263.6" stroke="#8C8C8C" stroke-width="1.4"/><line x1="91.2" y1="252.9" x2="82.1" y2="256.9" stroke="#8C8C8C" stroke-width="1.4"/><line x1="88.6" y1="246.6" x2="79.3" y2="250.2" stroke="#8C8C8C" stroke-width="1.4"/><line x1="86.4" y1="240.2" x2="76.9" y2="243.3" stroke="#8C8C8C" stroke-width="1.4"/><line x1="96.0" y1="230.5" x2="74.8" y2="236.2" stroke="#F5F5F5" stroke-width="3"/><text x="115.3" y="232.4" text-anchor="middle" font-size="18" font-style="italic" fill="#F5F5F5">1</text><line x1="82.8" y1="227.0" x2="73.1" y2="229.1" stroke="#8C8C8C" stroke-width="1.4"/><line x1="81.6" y1="220.3" x2="71.7" y2="221.9" stroke="#8C8C8C" stroke-width="1.4"/><line x1="80.7" y1="213.6" x2="70.8" y2="214.6" stroke="#8C8C8C" stroke-width="1.4"/><line x1="80.2" y1="206.8" x2="70.2" y2="207.3" stroke="#8C8C8C" stroke-width="1.4"/><line x1="80.0" y1="200.0" x2="70.0" y2="200.0" stroke="#8C8C8C" stroke-width="1.4"/><line x1="80.2" y1="193.2" x2="70.2" y2="192.7" stroke="#8C8C8C" stroke-width="1.4"/><line x1="80.7" y1="186.4" x2="70.8" y2="185.4" stroke="#8C8C8C" stroke-width="1.4"/><line x1="81.6" y1="179.7" x2="71.7" y2="178.1" stroke="#8C8C8C" stroke-width="1.4"/><line x1="82.8" y1="173.0" x2="73.1" y2="170.9" stroke="#8C8C8C" stroke-width="1.4"/><line x1="96.0" y1="169.5" x2="74.8" y2="163.8" stroke="#F5F5F5" stroke-width="3"/><text x="115.3" y="181.6" text-anchor="middle" font-size="18" font-style="italic" fill="#F5F5F5">2</text><line x1="86.4" y1="159.8" x2="76.9" y2="156.7" stroke="#8C8C8C" stroke-width="1.4"/><line x1="88.6" y1="153.4" x2="79.3" y2="149.8" stroke="#8C8C8C" stroke-width="1.4"/><line x1="91.2" y1="147.1" x2="82.1" y2="143.1" stroke="#8C8C8C" stroke-width="1.4"/><line x1="94.2" y1="141.0" x2="85.3" y2="136.4" stroke="#8C8C8C" stroke-width="1.4"/><line x1="97.4" y1="135.0" x2="88.8" y2="130.0" stroke="#8C8C8C" stroke-width="1.4"/><line x1="101.0" y1="129.2" x2="92.6" y2="123.8" stroke="#8C8C8C" stroke-width="1.4"/><line x1="104.8" y1="123.6" x2="96.7" y2="117.7" stroke="#8C8C8C" stroke-width="1.4"/><line x1="109.0" y1="118.2" x2="101.2" y2="111.9" stroke="#8C8C8C" stroke-width="1.4"/><line x1="113.4" y1="113.0" x2="106.0" y2="106.3" stroke="#8C8C8C" stroke-width="1.4"/><line x1="126.6" y1="116.6" x2="111.0" y2="101.0" stroke="#F5F5F5" stroke-width="3"/><text x="140.7" y="137.7" text-anchor="middle" font-size="18" font-style="italic" fill="#F5F5F5">3</text><line x1="123.0" y1="103.4" x2="116.3" y2="96.0" stroke="#8C8C8C" stroke-width="1.4"/><line x1="128.2" y1="99.0" x2="121.9" y2="91.2" stroke="#8C8C8C" stroke-width="1.4"/><line x1="133.6" y1="94.8" x2="127.7" y2="86.7" stroke="#8C8C8C" stroke-width="1.4"/><line x1="139.2" y1="91.0" x2="133.8" y2="82.6" stroke="#8C8C8C" stroke-width="1.4"/><line x1="145.0" y1="87.4" x2="140.0" y2="78.8" stroke="#8C8C8C" stroke-width="1.4"/><line x1="151.0" y1="84.2" x2="146.4" y2="75.3" stroke="#8C8C8C" stroke-width="1.4"/><line x1="157.1" y1="81.2" x2="153.1" y2="72.1" stroke="#8C8C8C" stroke-width="1.4"/><line x1="163.4" y1="78.6" x2="159.8" y2="69.3" stroke="#8C8C8C" stroke-width="1.4"/><line x1="169.8" y1="76.4" x2="166.7" y2="66.9" stroke="#8C8C8C" stroke-width="1.4"/><line x1="179.5" y1="86.0" x2="173.8" y2="64.8" stroke="#F5F5F5" stroke-width="3"/><text x="184.6" y="112.3" text-anchor="middle" font-size="18" font-style="italic" fill="#F5F5F5">4</text><line x1="183.0" y1="72.8" x2="180.9" y2="63.1" stroke="#8C8C8C" stroke-width="1.4"/><line x1="189.7" y1="71.6" x2="188.1" y2="61.7" stroke="#8C8C8C" stroke-width="1.4"/><line x1="196.4" y1="70.7" x2="195.4" y2="60.8" stroke="#8C8C8C" stroke-width="1.4"/><line x1="203.2" y1="70.2" x2="202.7" y2="60.2" stroke="#8C8C8C" stroke-width="1.4"/><line x1="210.0" y1="70.0" x2="210.0" y2="60.0" stroke="#8C8C8C" stroke-width="1.4"/><line x1="216.8" y1="70.2" x2="217.3" y2="60.2" stroke="#8C8C8C" stroke-width="1.4"/><line x1="223.6" y1="70.7" x2="224.6" y2="60.8" stroke="#8C8C8C" stroke-width="1.4"/><line x1="230.3" y1="71.6" x2="231.9" y2="61.7" stroke="#8C8C8C" stroke-width="1.4"/><line x1="237.0" y1="72.8" x2="239.1" y2="63.1" stroke="#8C8C8C" stroke-width="1.4"/><line x1="240.5" y1="86.0" x2="246.2" y2="64.8" stroke="#F5F5F5" stroke-width="3"/><text x="235.4" y="112.3" text-anchor="middle" font-size="18" font-style="italic" fill="#F5F5F5">5</text><line x1="250.2" y1="76.4" x2="253.3" y2="66.9" stroke="#8C8C8C" stroke-width="1.4"/><line x1="256.6" y1="78.6" x2="260.2" y2="69.3" stroke="#8C8C8C" stroke-width="1.4"/><line x1="262.9" y1="81.2" x2="266.9" y2="72.1" stroke="#8C8C8C" stroke-width="1.4"/><line x1="269.0" y1="84.2" x2="273.6" y2="75.3" stroke="#8C8C8C" stroke-width="1.4"/><line x1="275.0" y1="87.4" x2="280.0" y2="78.8" stroke="#8C8C8C" stroke-width="1.4"/><line x1="280.8" y1="91.0" x2="286.2" y2="82.6" stroke="#8C8C8C" stroke-width="1.4"/><line x1="286.4" y1="94.8" x2="292.3" y2="86.7" stroke="#8C8C8C" stroke-width="1.4"/><line x1="291.8" y1="99.0" x2="298.1" y2="91.2" stroke="#8C8C8C" stroke-width="1.4"/><line x1="297.0" y1="103.4" x2="303.7" y2="96.0" stroke="#8C8C8C" stroke-width="1.4"/><line x1="293.4" y1="116.6" x2="309.0" y2="101.0" stroke="#F5F5F5" stroke-width="3"/><text x="279.3" y="137.7" text-anchor="middle" font-size="18" font-style="italic" fill="#F5F5F5">6</text><line x1="306.6" y1="113.0" x2="314.0" y2="106.3" stroke="#8C8C8C" stroke-width="1.4"/><line x1="311.0" y1="118.2" x2="318.8" y2="111.9" stroke="#8C8C8C" stroke-width="1.4"/><line x1="315.2" y1="123.6" x2="323.3" y2="117.7" stroke="#8C8C8C" stroke-width="1.4"/><line x1="319.0" y1="129.2" x2="327.4" y2="123.8" stroke="#8C8C8C" stroke-width="1.4"/><line x1="322.6" y1="135.0" x2="331.2" y2="130.0" stroke="#8C8C8C" stroke-width="1.4"/><line x1="325.8" y1="141.0" x2="334.7" y2="136.4" stroke="#8C8C8C" stroke-width="1.4"/><line x1="328.8" y1="147.1" x2="337.9" y2="143.1" stroke="#8C8C8C" stroke-width="1.4"/><line x1="331.4" y1="153.4" x2="340.7" y2="149.8" stroke="#8C8C8C" stroke-width="1.4"/><line x1="333.6" y1="159.8" x2="343.1" y2="156.7" stroke="#8C8C8C" stroke-width="1.4"/><line x1="324.0" y1="169.5" x2="345.2" y2="163.8" stroke="#E60012" stroke-width="3"/><text x="304.7" y="181.6" text-anchor="middle" font-size="18" font-style="italic" fill="#E60012">7</text><line x1="337.2" y1="173.0" x2="346.9" y2="170.9" stroke="#E60012" stroke-width="1.4"/><line x1="338.4" y1="179.7" x2="348.3" y2="178.1" stroke="#E60012" stroke-width="1.4"/><line x1="339.3" y1="186.4" x2="349.2" y2="185.4" stroke="#E60012" stroke-width="1.4"/><line x1="339.8" y1="193.2" x2="349.8" y2="192.7" stroke="#E60012" stroke-width="1.4"/><line x1="340.0" y1="200.0" x2="350.0" y2="200.0" stroke="#E60012" stroke-width="1.4"/><line x1="339.8" y1="206.8" x2="349.8" y2="207.3" stroke="#E60012" stroke-width="1.4"/><line x1="339.3" y1="213.6" x2="349.2" y2="214.6" stroke="#E60012" stroke-width="1.4"/><line x1="338.4" y1="220.3" x2="348.3" y2="221.9" stroke="#E60012" stroke-width="1.4"/><line x1="337.2" y1="227.0" x2="346.9" y2="229.1" stroke="#E60012" stroke-width="1.4"/><line x1="324.0" y1="230.5" x2="345.2" y2="236.2" stroke="#E60012" stroke-width="3"/><text x="304.7" y="232.4" text-anchor="middle" font-size="18" font-style="italic" fill="#E60012">8</text><line x1="333.6" y1="240.2" x2="343.1" y2="243.3" stroke="#E60012" stroke-width="1.4"/><line x1="331.4" y1="246.6" x2="340.7" y2="250.2" stroke="#E60012" stroke-width="1.4"/><line x1="328.8" y1="252.9" x2="337.9" y2="256.9" stroke="#E60012" stroke-width="1.4"/><line x1="325.8" y1="259.0" x2="334.7" y2="263.6" stroke="#E60012" stroke-width="1.4"/><line x1="322.6" y1="265.0" x2="331.2" y2="270.0" stroke="#E60012" stroke-width="1.4"/><line x1="319.0" y1="270.8" x2="327.4" y2="276.2" stroke="#E60012" stroke-width="1.4"/><line x1="315.2" y1="276.4" x2="323.3" y2="282.3" stroke="#E60012" stroke-width="1.4"/><line x1="311.0" y1="281.8" x2="318.8" y2="288.1" stroke="#E60012" stroke-width="1.4"/><line x1="306.6" y1="287.0" x2="314.0" y2="293.7" stroke="#E60012" stroke-width="1.4"/><line x1="293.4" y1="283.4" x2="309.0" y2="299.0" stroke="#E60012" stroke-width="3"/><text x="279.3" y="276.3" text-anchor="middle" font-size="18" font-style="italic" fill="#E60012">9</text>
<text x="210" y="270" text-anchor="middle" font-size="40" font-style="italic" fill="#F5F5F5">928</text>
<text class="mono" x="210" y="294" text-anchor="middle" font-size="12" letter-spacing="3" fill="#8C8C8C">COMMITS x1</text>
<text class="mono" x="210" y="160" text-anchor="middle" font-size="11" letter-spacing="2" fill="#8C8C8C">x1000 r/min</text>
<g class="needle"><path d="M206,200 L210,78 L214,200 Z" fill="#E60012"/></g>
<circle cx="210" cy="200" r="14" fill="#151515" stroke="#F5F5F5" stroke-width="2"/>
<g transform="translate(430,50)"><g class="t1">
<rect width="350" height="110" rx="10" fill="#121212" stroke="#2E2E2E"/><rect width="6" height="110" rx="3" fill="#FF1E2D"/>
<text class="mono" x="26" y="32" font-size="14" letter-spacing="3" fill="#8C8C8C">TOTAL LAPS</text>
<text x="26" y="88" font-size="50" font-style="italic" fill="#F5F5F5">928</text>
<text class="mono" x="144" y="86" font-size="15" fill="#8C8C8C">commits</text></g></g><g transform="translate(810,50)"><g class="t2">
<rect width="350" height="110" rx="10" fill="#121212" stroke="#2E2E2E"/><rect width="6" height="110" rx="3" fill="#FF1E2D"/>
<text class="mono" x="26" y="32" font-size="14" letter-spacing="3" fill="#8C8C8C">RACES ENTERED</text>
<text x="26" y="88" font-size="50" font-style="italic" fill="#F5F5F5">8</text>
<text class="mono" x="72" y="86" font-size="15" fill="#8C8C8C">repositories</text></g></g><g transform="translate(430,180)"><g class="t3">
<rect width="350" height="110" rx="10" fill="#121212" stroke="#2E2E2E"/><rect width="6" height="110" rx="3" fill="#C8C8C8"/>
<text class="mono" x="26" y="32" font-size="14" letter-spacing="3" fill="#8C8C8C">ENGINES</text>
<text x="26" y="88" font-size="50" font-style="italic" fill="#F5F5F5">7</text>
<text class="mono" x="72" y="86" font-size="15" fill="#8C8C8C">languages</text></g></g><g transform="translate(810,180)"><g class="t4">
<rect width="350" height="110" rx="10" fill="#121212" stroke="#2E2E2E"/><rect width="6" height="110" rx="3" fill="#E60012"/>
<text class="mono" x="26" y="32" font-size="14" letter-spacing="3" fill="#8C8C8C">ROOKIE SEASON</text>
<text x="26" y="88" font-size="50" font-style="italic" fill="#F5F5F5">2021</text>
<text class="mono" x="180" y="86" font-size="15" fill="#8C8C8C">on github</text></g></g>

<g transform="translate(430,302)"><rect width="730" height="74" rx="10" fill="#121212" stroke="#2E2E2E"/></g>
<g transform="translate(470,339)">
  <circle r="28" fill="#050505" stroke="#8C8C8C" stroke-width="3"/>
  <circle class="blur" r="22" fill="none" stroke="#E60012" stroke-width="6" opacity="0"/>
  <g class="spin"><circle r="22" fill="none"/><path d="M0,0 C6,-6 10,-14 8,-22" fill="none" stroke="#F5F5F5" stroke-width="3" stroke-linecap="round" transform="rotate(0)"/><path d="M0,0 C6,-6 10,-14 8,-22" fill="none" stroke="#F5F5F5" stroke-width="3" stroke-linecap="round" transform="rotate(45)"/><path d="M0,0 C6,-6 10,-14 8,-22" fill="none" stroke="#F5F5F5" stroke-width="3" stroke-linecap="round" transform="rotate(90)"/><path d="M0,0 C6,-6 10,-14 8,-22" fill="none" stroke="#F5F5F5" stroke-width="3" stroke-linecap="round" transform="rotate(135)"/><path d="M0,0 C6,-6 10,-14 8,-22" fill="none" stroke="#F5F5F5" stroke-width="3" stroke-linecap="round" transform="rotate(180)"/><path d="M0,0 C6,-6 10,-14 8,-22" fill="none" stroke="#F5F5F5" stroke-width="3" stroke-linecap="round" transform="rotate(225)"/><path d="M0,0 C6,-6 10,-14 8,-22" fill="none" stroke="#F5F5F5" stroke-width="3" stroke-linecap="round" transform="rotate(270)"/><path d="M0,0 C6,-6 10,-14 8,-22" fill="none" stroke="#F5F5F5" stroke-width="3" stroke-linecap="round" transform="rotate(315)"/></g>
  <circle r="5" fill="#E60012"/>
</g>
<text class="mono" x="520" y="328" font-size="13" letter-spacing="3" fill="#8C8C8C">TURBO BOOST</text>
<text class="mono" x="660" y="328" font-size="11" letter-spacing="2" fill="#FF1E2D">BAR</text>
<rect x="560" y="336" width="460" height="12" rx="6" fill="#242424"/>
<defs><linearGradient id="bg2" x1="0" x2="1"><stop offset="0" stop-color="#8C8C8C"/><stop offset=".7" stop-color="#F5F5F5"/><stop offset="1" stop-color="#E60012"/></linearGradient></defs>
<rect class="boost" x="560" y="336" width="460" height="12" rx="6" fill="url(#bg2)"/>
<line x1="560" y1="352" x2="560" y2="358" stroke="#8C8C8C" stroke-width="1.5"/><text class="mono" x="560" y="372" text-anchor="middle" font-size="10" fill="#8C8C8C">0.0</text><line x1="652" y1="352" x2="652" y2="358" stroke="#8C8C8C" stroke-width="1.5"/><text class="mono" x="652" y="372" text-anchor="middle" font-size="10" fill="#8C8C8C">0.4</text><line x1="744" y1="352" x2="744" y2="358" stroke="#8C8C8C" stroke-width="1.5"/><text class="mono" x="744" y="372" text-anchor="middle" font-size="10" fill="#8C8C8C">0.8</text><line x1="836" y1="352" x2="836" y2="358" stroke="#8C8C8C" stroke-width="1.5"/><text class="mono" x="836" y="372" text-anchor="middle" font-size="10" fill="#8C8C8C">1.2</text><line x1="928" y1="352" x2="928" y2="358" stroke="#8C8C8C" stroke-width="1.5"/><text class="mono" x="928" y="372" text-anchor="middle" font-size="10" fill="#8C8C8C">1.6</text><line x1="1020" y1="352" x2="1020" y2="358" stroke="#8C8C8C" stroke-width="1.5"/><text class="mono" x="1020" y="372" text-anchor="middle" font-size="10" fill="#8C8C8C">2.0</text>
<text class="bov" x="1046" y="352" font-size="24" font-style="italic" fill="#F5F5F5">PSSHH</text>

</g>
<rect x=".5" y=".5" width="1199" height="379" rx="14" fill="none" stroke="#2E2E2E"/>
</svg>